[img]http://imgcrave.com/u/nR9Mv.jpg[/img]

The Nazis set up a secret base on the moon in 1945 where they hide out and plan to return to power in 2018. 
General
Complete name                            : C:UserskyleaidenDesktopIron.Sky.2012.DVDRip.XviD-PSiGpsig-is.xvid.avi
Format                                   : AVI
Format/Info                              : Audio Video Interleave
File size                                : 317 MiB
Duration                                 : 1h 28mn
Overall bit rate mode                    : Variable
Overall bit rate                         : 498 Kbps
Writing application                      : Nandub v1.0rc2
Writing library                          : Nandub build 1852/release

Video
ID                                       : 0
Format                                   : MPEG-4 Visual
Format profile                           : Advanced Simple@L5
Format settings, BVOP                    : 1
Format settings, QPel                    : No
Format settings, GMC                     : No warppoints
Format settings, Matrix                  : Default (H.263)
Codec ID                                 : XVID
Codec ID/Hint                            : XviD
Duration                                 : 1h 28mn
Bit rate                                 : 342 Kbps
Width                                    : 640 pixels
Height                                   : 272 pixels
Display aspect ratio                     : 2.35:1
Frame rate                               : 25.000 fps
Color space                              : YUV
Chroma subsampling                       : 4:2:0
Bit depth                                : 8 bits
Scan type                                : Progressive
Compression mode                         : Lossy
Bits/(Pixel*Frame)                       : 0.079
Stream size                              : 217 MiB (69%)
Writing library                          : XviD 1.2.1 (UTC 2008-12-04)

Audio
ID                                       : 1
Format                                   : MPEG Audio
Format version                           : Version 1
Format profile                           : Layer 3
Mode                                     : Joint stereo
Mode extension                           : MS Stereo
Codec ID                                 : 55
Codec ID/Hint                            : MP3
Duration                                 : 1h 28mn
Bit rate mode                            : Variable
Bit rate                                 : 128 Kbps
Channel(s)                               : 2 channels
Sampling rate                            : 48.0 KHz
Compression mode                         : Lossy
Stream size                              : 81.2 MiB (26%)
Alignment                                : Aligned on interleaves
Writing library                          : LAME3.90.
Encoding settings                        : -m j -V 4 -q 2 -lowpass 17.6 --abr 128

[img]http://imgcrave.com/u/g9Ox.png[/img]
[img]http://imgcrave.com/u/HrJ1R.png[/img]
[img]http://imgcrave.com/u/8SsG.png[/img]
[img]http://imgcrave.com/u/a8dkv.png[/img]
[img]http://imgcrave.com/u/F5Pmq.png[/img]
[img]http://imgcrave.com/u/dMzW6.png[/img]
